<?xml version="1.0" encoding="UTF-8" standalone="no"?>
<!-- Created with Inkscape (http://www.inkscape.org/) -->

<svg
   xmlns:dc="http://purl.org/dc/elements/1.1/"
   xmlns:cc="http://creativecommons.org/ns#"
   xmlns:rdf="http://www.w3.org/1999/02/22-rdf-syntax-ns#"
   xmlns:svg="http://www.w3.org/2000/svg"
   xmlns="http://www.w3.org/2000/svg"
   xmlns:sodipodi="http://sodipodi.sourceforge.net/DTD/sodipodi-0.dtd"
   xmlns:inkscape="http://www.inkscape.org/namespaces/inkscape"
   width="64"
   height="64"
   viewBox="0 0 16.933333 16.933334"
   version="1.1"
   id="svg8"
   inkscape:version="0.92.2 (5c3e80d, 2017-08-06)"
   sodipodi:docname="ninja.svg"
   inkscape:export-filename="C:\Users\Dave\ninja.png"
   inkscape:export-xdpi="96"
   inkscape:export-ydpi="96">
  <defs
     id="defs2" />
  <sodipodi:namedview
     id="base"
     pagecolor="#ffffff"
     bordercolor="#666666"
     borderopacity="1.0"
     inkscape:pageopacity="0.0"
     inkscape:pageshadow="2"
     inkscape:zoom="13.25"
     inkscape:cx="20.716981"
     inkscape:cy="32"
     inkscape:document-units="mm"
     inkscape:current-layer="layer1"
     showgrid="false"
     units="px"
     inkscape:pagecheckerboard="true"
     inkscape:window-width="1920"
     inkscape:window-height="1017"
     inkscape:window-x="-8"
     inkscape:window-y="-8"
     inkscape:window-maximized="1" />
  <metadata
     id="metadata5">
    <rdf:RDF>
      <cc:Work
         rdf:about="">
        <dc:format>image/svg+xml</dc:format>
        <dc:type
           rdf:resource="http://purl.org/dc/dcmitype/StillImage" />
        <dc:title></dc:title>
      </cc:Work>
    </rdf:RDF>
  </metadata>
  <g
     inkscape:label="Layer 1"
     inkscape:groupmode="layer"
     id="layer1"
     transform="translate(0,-280.06665)">
    <path
       style="stroke-width:0.99999994"
       d="M 31.962891 2.7929688 A 28.716982 29.132076 0 0 0 3.2460938 31.923828 A 28.716982 29.132076 0 0 0 31.962891 61.056641 A 28.716982 29.132076 0 0 0 60.679688 31.923828 A 28.716982 29.132076 0 0 0 31.962891 2.7929688 z M 13.587891 18.189453 L 50.638672 18.189453 C 51.894989 18.189453 52.90625 19.200714 52.90625 20.457031 L 52.90625 31.769531 C 52.90625 33.025848 51.894989 34.037109 50.638672 34.037109 L 13.587891 34.037109 C 12.331574 34.037109 11.320312 33.025848 11.320312 31.769531 L 11.320312 20.457031 C 11.320312 19.200714 12.331574 18.189453 13.587891 18.189453 z "
       transform="matrix(0.26458333,0,0,0.26458333,0,280.06665)"
       id="path3711" />
    <ellipse
       style="fill:#000000;stroke-width:0.26458332"
       id="path3732"
       cx="6.0604558"
       cy="287.21539"
       rx="1.8071541"
       ry="0.57908803" />
    <ellipse
       style="fill:#000000;stroke-width:0.26458332"
       id="path3732-1"
       cx="11.102515"
       cy="287.25534"
       rx="1.8071541"
       ry="0.57908803" />
  </g>
</svg>
